  0
SECTION
  2
BLOCKS
  0
ENDSEC
  0
SECTION
  2
ENTITIES
  0
LINE
  8
0
 10
3.20232
 20
-50.8994
 11
6.39198
 21
-50.5978
  0
LINE
  8
0
 10
6.39198
 20
-50.5978
 11
9.55644
 21
-50.0966
  0
LINE
  8
0
 10
9.55644
 20
-50.0966
 11
12.6832
 21
-49.3977
  0
LINE
  8
0
 10
12.6832
 20
-49.3977
 11
15.7599
 21
-48.5039
  0
LINE
  8
0
 10
15.7599
 20
-48.5039
 11
18.7743
 21
-47.4186
  0
LINE
  8
0
 10
18.7743
 20
-47.4186
 11
21.7147
 21
-46.1462
  0
LINE
  8
0
 10
21.7147
 20
-46.1462
 11
24.5694
 21
-44.6916
  0
LINE
  8
0
 10
24.5694
 20
-44.6916
 11
27.3272
 21
-43.0607
  0
LINE
  8
0
 10
27.3272
 20
-43.0607
 11
29.977
 21
-41.2599
  0
LINE
  8
0
 10
29.977
 20
-41.2599
 11
32.5086
 21
-39.2962
  0
LINE
  8
0
 10
32.5086
 20
-39.2962
 11
34.9119
 21
-37.1774
  0
LINE
  8
0
 10
34.9119
 20
-37.1774
 11
37.1774
 21
-34.9119
  0
LINE
  8
0
 10
37.1774
 20
-34.9119
 11
39.2962
 21
-32.5086
  0
LINE
  8
0
 10
39.2962
 20
-32.5086
 11
41.2599
 21
-29.977
  0
LINE
  8
0
 10
41.2599
 20
-29.977
 11
43.0607
 21
-27.3272
  0
LINE
  8
0
 10
43.0607
 20
-27.3272
 11
44.6916
 21
-24.5694
  0
LINE
  8
0
 10
44.6916
 20
-24.5694
 11
46.1462
 21
-21.7147
  0
LINE
  8
0
 10
46.1462
 20
-21.7147
 11
47.4186
 21
-18.7743
  0
LINE
  8
0
 10
47.4186
 20
-18.7743
 11
48.5039
 21
-15.7599
  0
LINE
  8
0
 10
48.5039
 20
-15.7599
 11
49.3977
 21
-12.6832
  0
LINE
  8
0
 10
49.3977
 20
-12.6832
 11
50.0966
 21
-9.55644
  0
LINE
  8
0
 10
50.0966
 20
-9.55644
 11
50.5978
 21
-6.39198
  0
LINE
  8
0
 10
50.5978
 20
-6.39198
 11
50.8994
 21
-3.20232
  0
LINE
  8
0
 10
50.8994
 20
-3.20232
 11
51
 21
0
  0
LINE
  8
0
 10
51
 20
0
 11
50.8994
 21
3.20232
  0
LINE
  8
0
 10
50.8994
 20
3.20232
 11
50.5978
 21
6.39198
  0
LINE
  8
0
 10
50.5978
 20
6.39198
 11
50.0966
 21
9.55644
  0
LINE
  8
0
 10
50.0966
 20
9.55644
 11
49.3977
 21
12.6832
  0
LINE
  8
0
 10
49.3977
 20
12.6832
 11
48.5039
 21
15.7599
  0
LINE
  8
0
 10
48.5039
 20
15.7599
 11
47.4186
 21
18.7743
  0
LINE
  8
0
 10
47.4186
 20
18.7743
 11
46.1462
 21
21.7147
  0
LINE
  8
0
 10
46.1462
 20
21.7147
 11
44.6916
 21
24.5694
  0
LINE
  8
0
 10
44.6916
 20
24.5694
 11
43.0607
 21
27.3272
  0
LINE
  8
0
 10
43.0607
 20
27.3272
 11
41.2599
 21
29.977
  0
LINE
  8
0
 10
41.2599
 20
29.977
 11
39.2962
 21
32.5086
  0
LINE
  8
0
 10
39.2962
 20
32.5086
 11
37.1774
 21
34.9119
  0
LINE
  8
0
 10
37.1774
 20
34.9119
 11
34.9119
 21
37.1774
  0
LINE
  8
0
 10
34.9119
 20
37.1774
 11
32.5086
 21
39.2962
  0
LINE
  8
0
 10
32.5086
 20
39.2962
 11
29.977
 21
41.2599
  0
LINE
  8
0
 10
29.977
 20
41.2599
 11
27.3272
 21
43.0607
  0
LINE
  8
0
 10
27.3272
 20
43.0607
 11
24.5694
 21
44.6916
  0
LINE
  8
0
 10
24.5694
 20
44.6916
 11
21.7147
 21
46.1462
  0
LINE
  8
0
 10
21.7147
 20
46.1462
 11
18.7743
 21
47.4186
  0
LINE
  8
0
 10
18.7743
 20
47.4186
 11
15.7599
 21
48.5039
  0
LINE
  8
0
 10
15.7599
 20
48.5039
 11
12.6832
 21
49.3977
  0
LINE
  8
0
 10
12.6832
 20
49.3977
 11
9.55644
 21
50.0966
  0
LINE
  8
0
 10
9.55644
 20
50.0966
 11
6.39198
 21
50.5978
  0
LINE
  8
0
 10
6.39198
 20
50.5978
 11
3.20232
 21
50.8994
  0
LINE
  8
0
 10
3.20232
 20
50.8994
 11
0
 21
51
  0
LINE
  8
0
 10
0
 20
51
 11
-3.20232
 21
50.8994
  0
LINE
  8
0
 10
-3.20232
 20
50.8994
 11
-6.39198
 21
50.5978
  0
LINE
  8
0
 10
-6.39198
 20
50.5978
 11
-9.55644
 21
50.0966
  0
LINE
  8
0
 10
-9.55644
 20
50.0966
 11
-12.6832
 21
49.3977
  0
LINE
  8
0
 10
-12.6832
 20
49.3977
 11
-15.7599
 21
48.5039
  0
LINE
  8
0
 10
-15.7599
 20
48.5039
 11
-18.7743
 21
47.4186
  0
LINE
  8
0
 10
-18.7743
 20
47.4186
 11
-21.7147
 21
46.1462
  0
LINE
  8
0
 10
-21.7147
 20
46.1462
 11
-24.5694
 21
44.6916
  0
LINE
  8
0
 10
-24.5694
 20
44.6916
 11
-27.3272
 21
43.0607
  0
LINE
  8
0
 10
-27.3272
 20
43.0607
 11
-29.977
 21
41.2599
  0
LINE
  8
0
 10
-29.977
 20
41.2599
 11
-32.5086
 21
39.2962
  0
LINE
  8
0
 10
-32.5086
 20
39.2962
 11
-34.9119
 21
37.1774
  0
LINE
  8
0
 10
-34.9119
 20
37.1774
 11
-37.1774
 21
34.9119
  0
LINE
  8
0
 10
-37.1774
 20
34.9119
 11
-39.2962
 21
32.5086
  0
LINE
  8
0
 10
-39.2962
 20
32.5086
 11
-41.2599
 21
29.977
  0
LINE
  8
0
 10
-41.2599
 20
29.977
 11
-43.0607
 21
27.3272
  0
LINE
  8
0
 10
-43.0607
 20
27.3272
 11
-44.6916
 21
24.5694
  0
LINE
  8
0
 10
-44.6916
 20
24.5694
 11
-46.1462
 21
21.7147
  0
LINE
  8
0
 10
-46.1462
 20
21.7147
 11
-47.4186
 21
18.7743
  0
LINE
  8
0
 10
-47.4186
 20
18.7743
 11
-48.5039
 21
15.7599
  0
LINE
  8
0
 10
-48.5039
 20
15.7599
 11
-49.3977
 21
12.6832
  0
LINE
  8
0
 10
-49.3977
 20
12.6832
 11
-50.0966
 21
9.55644
  0
LINE
  8
0
 10
-50.0966
 20
9.55644
 11
-50.5978
 21
6.39198
  0
LINE
  8
0
 10
-50.5978
 20
6.39198
 11
-50.8994
 21
3.20232
  0
LINE
  8
0
 10
-50.8994
 20
3.20232
 11
-51
 21
0
  0
LINE
  8
0
 10
-51
 20
0
 11
-50.8994
 21
-3.20232
  0
LINE
  8
0
 10
-50.8994
 20
-3.20232
 11
-50.5978
 21
-6.39198
  0
LINE
  8
0
 10
-50.5978
 20
-6.39198
 11
-50.0966
 21
-9.55644
  0
LINE
  8
0
 10
-50.0966
 20
-9.55644
 11
-49.3977
 21
-12.6832
  0
LINE
  8
0
 10
-49.3977
 20
-12.6832
 11
-48.5039
 21
-15.7599
  0
LINE
  8
0
 10
-48.5039
 20
-15.7599
 11
-47.4186
 21
-18.7743
  0
LINE
  8
0
 10
-47.4186
 20
-18.7743
 11
-46.1462
 21
-21.7147
  0
LINE
  8
0
 10
-46.1462
 20
-21.7147
 11
-44.6916
 21
-24.5694
  0
LINE
  8
0
 10
-44.6916
 20
-24.5694
 11
-43.0607
 21
-27.3272
  0
LINE
  8
0
 10
-43.0607
 20
-27.3272
 11
-41.2599
 21
-29.977
  0
LINE
  8
0
 10
-41.2599
 20
-29.977
 11
-39.2962
 21
-32.5086
  0
LINE
  8
0
 10
-39.2962
 20
-32.5086
 11
-37.1774
 21
-34.9119
  0
LINE
  8
0
 10
-37.1774
 20
-34.9119
 11
-34.9119
 21
-37.1774
  0
LINE
  8
0
 10
-34.9119
 20
-37.1774
 11
-32.5086
 21
-39.2962
  0
LINE
  8
0
 10
-32.5086
 20
-39.2962
 11
-29.977
 21
-41.2599
  0
LINE
  8
0
 10
-29.977
 20
-41.2599
 11
-27.3272
 21
-43.0607
  0
LINE
  8
0
 10
-27.3272
 20
-43.0607
 11
-24.5694
 21
-44.6916
  0
LINE
  8
0
 10
-24.5694
 20
-44.6916
 11
-21.7147
 21
-46.1462
  0
LINE
  8
0
 10
-21.7147
 20
-46.1462
 11
-18.7743
 21
-47.4186
  0
LINE
  8
0
 10
-18.7743
 20
-47.4186
 11
-15.7599
 21
-48.5039
  0
LINE
  8
0
 10
-15.7599
 20
-48.5039
 11
-12.6832
 21
-49.3977
  0
LINE
  8
0
 10
-12.6832
 20
-49.3977
 11
-9.55644
 21
-50.0966
  0
LINE
  8
0
 10
-9.55644
 20
-50.0966
 11
-6.39198
 21
-50.5978
  0
LINE
  8
0
 10
-6.39198
 20
-50.5978
 11
-3.20232
 21
-50.8994
  0
LINE
  8
0
 10
-3.20232
 20
-50.8994
 11
0
 21
-51
  0
LINE
  8
0
 10
0
 20
-51
 11
3.20232
 21
-50.8994
  0
LINE
  8
0
 10
18.8006
 20
-29.5014
 11
17.8164
 21
-30.126
  0
LINE
  8
0
 10
17.8164
 20
-30.126
 11
15.8897
 21
-31.1852
  0
LINE
  8
0
 10
15.8897
 20
-31.1852
 11
14.7844
 21
-31.7053
  0
LINE
  8
0
 10
14.7844
 20
-31.7053
 11
5.28015
 21
-11.3233
  0
LINE
  8
0
 10
5.28015
 20
-11.3233
 11
5.67487
 21
-11.1376
  0
LINE
  8
0
 10
5.67487
 20
-11.1376
 11
6.36301
 21
-10.7593
  0
LINE
  8
0
 10
6.36301
 20
-10.7593
 11
7.02603
 21
-10.3385
  0
LINE
  8
0
 10
7.02603
 20
-10.3385
 11
7.66133
 21
-9.87692
  0
LINE
  8
0
 10
7.66133
 20
-9.87692
 11
8.26639
 21
-9.37637
  0
LINE
  8
0
 10
8.26639
 20
-9.37637
 11
8.83882
 21
-8.83882
  0
LINE
  8
0
 10
8.83882
 20
-8.83882
 11
9.37637
 21
-8.26639
  0
LINE
  8
0
 10
9.37637
 20
-8.26639
 11
9.87692
 21
-7.66133
  0
LINE
  8
0
 10
9.87692
 20
-7.66133
 11
10.3385
 21
-7.02603
  0
LINE
  8
0
 10
10.3385
 20
-7.02603
 11
10.7593
 21
-6.36301
  0
LINE
  8
0
 10
10.7593
 20
-6.36301
 11
11.1376
 21
-5.67487
  0
LINE
  8
0
 10
11.1376
 20
-5.67487
 11
11.4719
 21
-4.96434
  0
LINE
  8
0
 10
11.4719
 20
-4.96434
 11
11.761
 21
-4.23422
  0
LINE
  8
0
 10
11.761
 20
-4.23422
 11
12.0037
 21
-3.48738
  0
LINE
  8
0
 10
12.0037
 20
-3.48738
 11
12.1989
 21
-2.72678
  0
LINE
  8
0
 10
12.1989
 20
-2.72678
 11
12.3461
 21
-1.95543
  0
LINE
  8
0
 10
12.3461
 20
-1.95543
 11
12.4445
 21
-1.17635
  0
LINE
  8
0
 10
12.4445
 20
-1.17635
 11
12.4938
 21
-0.392624
  0
LINE
  8
0
 10
12.4938
 20
-0.392624
 11
12.4938
 21
0.392624
  0
LINE
  8
0
 10
12.4938
 20
0.392624
 11
12.4445
 21
1.17635
  0
LINE
  8
0
 10
12.4445
 20
1.17635
 11
12.3461
 21
1.95543
  0
LINE
  8
0
 10
12.3461
 20
1.95543
 11
12.1989
 21
2.72678
  0
LINE
  8
0
 10
12.1989
 20
2.72678
 11
12.0037
 21
3.48738
  0
LINE
  8
0
 10
12.0037
 20
3.48738
 11
11.761
 21
4.23422
  0
LINE
  8
0
 10
11.761
 20
4.23422
 11
11.4719
 21
4.96434
  0
LINE
  8
0
 10
11.4719
 20
4.96434
 11
11.1376
 21
5.67487
  0
LINE
  8
0
 10
11.1376
 20
5.67487
 11
10.7593
 21
6.36301
  0
LINE
  8
0
 10
10.7593
 20
6.36301
 11
10.3385
 21
7.02603
  0
LINE
  8
0
 10
10.3385
 20
7.02603
 11
9.87692
 21
7.66133
  0
LINE
  8
0
 10
9.87692
 20
7.66133
 11
9.37637
 21
8.26639
  0
LINE
  8
0
 10
9.37637
 20
8.26639
 11
8.83882
 21
8.83882
  0
LINE
  8
0
 10
8.83882
 20
8.83882
 11
8.26639
 21
9.37637
  0
LINE
  8
0
 10
8.26639
 20
9.37637
 11
7.66133
 21
9.87692
  0
LINE
  8
0
 10
7.66133
 20
9.87692
 11
7.02603
 21
10.3385
  0
LINE
  8
0
 10
7.02603
 20
10.3385
 11
6.36301
 21
10.7593
  0
LINE
  8
0
 10
6.36301
 20
10.7593
 11
5.67487
 21
11.1376
  0
LINE
  8
0
 10
5.67487
 20
11.1376
 11
4.96434
 21
11.4719
  0
LINE
  8
0
 10
4.96434
 20
11.4719
 11
4.23422
 21
11.761
  0
LINE
  8
0
 10
4.23422
 20
11.761
 11
3.48738
 21
12.0037
  0
LINE
  8
0
 10
3.48738
 20
12.0037
 11
2.72678
 21
12.1989
  0
LINE
  8
0
 10
2.72678
 20
12.1989
 11
1.95543
 21
12.3461
  0
LINE
  8
0
 10
1.95543
 20
12.3461
 11
1.17635
 21
12.4445
  0
LINE
  8
0
 10
1.17635
 20
12.4445
 11
0.392624
 21
12.4938
  0
LINE
  8
0
 10
0.392624
 20
12.4938
 11
-0.392624
 21
12.4938
  0
LINE
  8
0
 10
-0.392624
 20
12.4938
 11
-1.17635
 21
12.4445
  0
LINE
  8
0
 10
-1.17635
 20
12.4445
 11
-1.95543
 21
12.3461
  0
LINE
  8
0
 10
-1.95543
 20
12.3461
 11
-2.72678
 21
12.1989
  0
LINE
  8
0
 10
-2.72678
 20
12.1989
 11
-3.48738
 21
12.0037
  0
LINE
  8
0
 10
-3.48738
 20
12.0037
 11
-4.23422
 21
11.761
  0
LINE
  8
0
 10
-4.23422
 20
11.761
 11
-4.96434
 21
11.4719
  0
LINE
  8
0
 10
-4.96434
 20
11.4719
 11
-5.67487
 21
11.1376
  0
LINE
  8
0
 10
-5.67487
 20
11.1376
 11
-6.36301
 21
10.7593
  0
LINE
  8
0
 10
-6.36301
 20
10.7593
 11
-7.02603
 21
10.3385
  0
LINE
  8
0
 10
-7.02603
 20
10.3385
 11
-7.66133
 21
9.87692
  0
LINE
  8
0
 10
-7.66133
 20
9.87692
 11
-8.26639
 21
9.37637
  0
LINE
  8
0
 10
-8.26639
 20
9.37637
 11
-8.83882
 21
8.83882
  0
LINE
  8
0
 10
-8.83882
 20
8.83882
 11
-9.37637
 21
8.26639
  0
LINE
  8
0
 10
-9.37637
 20
8.26639
 11
-9.87692
 21
7.66133
  0
LINE
  8
0
 10
-9.87692
 20
7.66133
 11
-10.3385
 21
7.02603
  0
LINE
  8
0
 10
-10.3385
 20
7.02603
 11
-10.7593
 21
6.36301
  0
LINE
  8
0
 10
-10.7593
 20
6.36301
 11
-11.1376
 21
5.67487
  0
LINE
  8
0
 10
-11.1376
 20
5.67487
 11
-11.4719
 21
4.96434
  0
LINE
  8
0
 10
-11.4719
 20
4.96434
 11
-11.761
 21
4.23422
  0
LINE
  8
0
 10
-11.761
 20
4.23422
 11
-12.0037
 21
3.48738
  0
LINE
  8
0
 10
-12.0037
 20
3.48738
 11
-12.1989
 21
2.72678
  0
LINE
  8
0
 10
-12.1989
 20
2.72678
 11
-12.3461
 21
1.95543
  0
LINE
  8
0
 10
-12.3461
 20
1.95543
 11
-12.4445
 21
1.17635
  0
LINE
  8
0
 10
-12.4445
 20
1.17635
 11
-12.4938
 21
0.392624
  0
LINE
  8
0
 10
-12.4938
 20
0.392624
 11
-12.4938
 21
-0.392624
  0
LINE
  8
0
 10
-12.4938
 20
-0.392624
 11
-12.4445
 21
-1.17635
  0
LINE
  8
0
 10
-12.4445
 20
-1.17635
 11
-12.3461
 21
-1.95543
  0
LINE
  8
0
 10
-12.3461
 20
-1.95543
 11
-12.1989
 21
-2.72678
  0
LINE
  8
0
 10
-12.1989
 20
-2.72678
 11
-12.0037
 21
-3.48738
  0
LINE
  8
0
 10
-12.0037
 20
-3.48738
 11
-11.761
 21
-4.23422
  0
LINE
  8
0
 10
-11.761
 20
-4.23422
 11
-11.4719
 21
-4.96434
  0
LINE
  8
0
 10
-11.4719
 20
-4.96434
 11
-11.1376
 21
-5.67487
  0
LINE
  8
0
 10
-11.1376
 20
-5.67487
 11
-10.7593
 21
-6.36301
  0
LINE
  8
0
 10
-10.7593
 20
-6.36301
 11
-10.3385
 21
-7.02603
  0
LINE
  8
0
 10
-10.3385
 20
-7.02603
 11
-9.87692
 21
-7.66133
  0
LINE
  8
0
 10
-9.87692
 20
-7.66133
 11
-9.37637
 21
-8.26639
  0
LINE
  8
0
 10
-9.37637
 20
-8.26639
 11
-8.83882
 21
-8.83882
  0
LINE
  8
0
 10
-8.83882
 20
-8.83882
 11
-8.26639
 21
-9.37637
  0
LINE
  8
0
 10
-8.26639
 20
-9.37637
 11
-7.66133
 21
-9.87692
  0
LINE
  8
0
 10
-7.66133
 20
-9.87692
 11
-7.02603
 21
-10.3385
  0
LINE
  8
0
 10
-7.02603
 20
-10.3385
 11
-6.36301
 21
-10.7593
  0
LINE
  8
0
 10
-6.36301
 20
-10.7593
 11
-5.67487
 21
-11.1376
  0
LINE
  8
0
 10
-5.67487
 20
-11.1376
 11
-5.28015
 21
-11.3233
  0
LINE
  8
0
 10
-5.28015
 20
-11.3233
 11
-14.7844
 21
-31.7053
  0
LINE
  8
0
 10
-14.7844
 20
-31.7053
 11
-15.8897
 21
-31.1852
  0
LINE
  8
0
 10
-15.8897
 20
-31.1852
 11
-17.8164
 21
-30.126
  0
LINE
  8
0
 10
-17.8164
 20
-30.126
 11
-18.8007
 21
-29.5014
  0
LINE
  8
0
 10
-18.8007
 20
-29.5014
 11
-27.5772
 21
-36.0624
  0
LINE
  8
0
 10
-27.5772
 20
-36.0624
 11
-36.0624
 21
-27.5772
  0
LINE
  8
0
 10
-36.0624
 20
-27.5772
 11
-29.5014
 21
-18.8006
  0
LINE
  8
0
 10
-29.5014
 20
-18.8006
 11
-30.126
 21
-17.8164
  0
LINE
  8
0
 10
-30.126
 20
-17.8164
 11
-31.1852
 21
-15.8897
  0
LINE
  8
0
 10
-31.1852
 20
-15.8897
 11
-32.1214
 21
-13.9002
  0
LINE
  8
0
 10
-32.1214
 20
-13.9002
 11
-32.9308
 21
-11.8558
  0
LINE
  8
0
 10
-32.9308
 20
-11.8558
 11
-33.6103
 21
-9.76468
  0
LINE
  8
0
 10
-33.6103
 20
-9.76468
 11
-34.1571
 21
-7.63501
  0
LINE
  8
0
 10
-34.1571
 20
-7.63501
 11
-34.1706
 21
-7.56424
  0
LINE
  8
0
 10
-34.1706
 20
-7.56424
 11
-45
 21
-5.99998
  0
LINE
  8
0
 10
-45
 20
-5.99998
 11
-45
 21
5.99998
  0
LINE
  8
0
 10
-45
 20
5.99998
 11
-34.1706
 21
7.56424
  0
LINE
  8
0
 10
-34.1706
 20
7.56424
 11
-34.1571
 21
7.63501
  0
LINE
  8
0
 10
-34.1571
 20
7.63501
 11
-33.6103
 21
9.76468
  0
LINE
  8
0
 10
-33.6103
 20
9.76468
 11
-32.9308
 21
11.8558
  0
LINE
  8
0
 10
-32.9308
 20
11.8558
 11
-32.1214
 21
13.9002
  0
LINE
  8
0
 10
-32.1214
 20
13.9002
 11
-31.1852
 21
15.8897
  0
LINE
  8
0
 10
-31.1852
 20
15.8897
 11
-30.126
 21
17.8164
  0
LINE
  8
0
 10
-30.126
 20
17.8164
 11
-29.5014
 21
18.8007
  0
LINE
  8
0
 10
-29.5014
 20
18.8007
 11
-36.0624
 21
27.5772
  0
LINE
  8
0
 10
-36.0624
 20
27.5772
 11
-27.5772
 21
36.0624
  0
LINE
  8
0
 10
-27.5772
 20
36.0624
 11
-18.8006
 21
29.5014
  0
LINE
  8
0
 10
-18.8006
 20
29.5014
 11
-17.8164
 21
30.126
  0
LINE
  8
0
 10
-17.8164
 20
30.126
 11
-15.8897
 21
31.1852
  0
LINE
  8
0
 10
-15.8897
 20
31.1852
 11
-13.9002
 21
32.1214
  0
LINE
  8
0
 10
-13.9002
 20
32.1214
 11
-11.8558
 21
32.9308
  0
LINE
  8
0
 10
-11.8558
 20
32.9308
 11
-9.76468
 21
33.6103
  0
LINE
  8
0
 10
-9.76468
 20
33.6103
 11
-7.63501
 21
34.1571
  0
LINE
  8
0
 10
-7.63501
 20
34.1571
 11
-7.56424
 21
34.1706
  0
LINE
  8
0
 10
-7.56424
 20
34.1706
 11
-5.99998
 21
45
  0
LINE
  8
0
 10
-5.99998
 20
45
 11
5.99998
 21
45
  0
LINE
  8
0
 10
5.99998
 20
45
 11
7.56424
 21
34.1706
  0
LINE
  8
0
 10
7.56424
 20
34.1706
 11
7.63501
 21
34.1571
  0
LINE
  8
0
 10
7.63501
 20
34.1571
 11
9.76468
 21
33.6103
  0
LINE
  8
0
 10
9.76468
 20
33.6103
 11
11.8558
 21
32.9308
  0
LINE
  8
0
 10
11.8558
 20
32.9308
 11
13.9002
 21
32.1214
  0
LINE
  8
0
 10
13.9002
 20
32.1214
 11
15.8897
 21
31.1852
  0
LINE
  8
0
 10
15.8897
 20
31.1852
 11
17.8164
 21
30.126
  0
LINE
  8
0
 10
17.8164
 20
30.126
 11
18.8007
 21
29.5014
  0
LINE
  8
0
 10
18.8007
 20
29.5014
 11
27.5772
 21
36.0624
  0
LINE
  8
0
 10
27.5772
 20
36.0624
 11
36.0624
 21
27.5772
  0
LINE
  8
0
 10
36.0624
 20
27.5772
 11
29.5014
 21
18.8006
  0
LINE
  8
0
 10
29.5014
 20
18.8006
 11
30.126
 21
17.8164
  0
LINE
  8
0
 10
30.126
 20
17.8164
 11
31.1852
 21
15.8897
  0
LINE
  8
0
 10
31.1852
 20
15.8897
 11
32.1214
 21
13.9002
  0
LINE
  8
0
 10
32.1214
 20
13.9002
 11
32.9308
 21
11.8558
  0
LINE
  8
0
 10
32.9308
 20
11.8558
 11
33.6103
 21
9.76468
  0
LINE
  8
0
 10
33.6103
 20
9.76468
 11
34.1571
 21
7.63501
  0
LINE
  8
0
 10
34.1571
 20
7.63501
 11
34.1706
 21
7.56424
  0
LINE
  8
0
 10
34.1706
 20
7.56424
 11
45
 21
5.99998
  0
LINE
  8
0
 10
45
 20
5.99998
 11
45
 21
-5.99998
  0
LINE
  8
0
 10
45
 20
-5.99998
 11
34.1706
 21
-7.56424
  0
LINE
  8
0
 10
34.1706
 20
-7.56424
 11
34.1571
 21
-7.63501
  0
LINE
  8
0
 10
34.1571
 20
-7.63501
 11
33.6103
 21
-9.76468
  0
LINE
  8
0
 10
33.6103
 20
-9.76468
 11
32.9308
 21
-11.8558
  0
LINE
  8
0
 10
32.9308
 20
-11.8558
 11
32.1214
 21
-13.9002
  0
LINE
  8
0
 10
32.1214
 20
-13.9002
 11
31.1852
 21
-15.8897
  0
LINE
  8
0
 10
31.1852
 20
-15.8897
 11
30.126
 21
-17.8164
  0
LINE
  8
0
 10
30.126
 20
-17.8164
 11
29.5014
 21
-18.8007
  0
LINE
  8
0
 10
29.5014
 20
-18.8007
 11
36.0624
 21
-27.5772
  0
LINE
  8
0
 10
36.0624
 20
-27.5772
 11
27.5772
 21
-36.0624
  0
LINE
  8
0
 10
27.5772
 20
-36.0624
 11
18.8006
 21
-29.5014
  0
ENDSEC
  0
SECTION
  2
OBJECTS
  0
DICTIONARY
  0
ENDSEC
  0
EOF
